# xmcd
#
# Track frame offsets: 
#        150
#        15722
#        32077
#        51099
#
# Disc length: 948 seconds
#
# Revision: 0
# Processed by: cddbd v1.5.2PL0 Copyright (c) Steve Scherf et al.
# Submitted via: ExactAudioCopy v0.99pb5
#
DISCID=2903b204
DTITLE=Serenades - Come Home
DYEAR=2011
DGENRE=Rock
TTITLE0=Come Home
TTITLE1=Oceans
TTITLE2=Miracles
TTITLE3=Come Home (Bjorn Yttling Remix)
EXTD=
EXTT0=
EXTT1=
EXTT2=
EXTT3=
PLAYORDER=
